<mxfile host="app.diagrams.net" modified="2021-11-14T16:10:21.232Z" agent="5.0 (X11)" etag="W6o0JZ8wwC3jzS6Vqy4P" version="14.9.8" type="github">
  <diagram id="NF41fwJBHrFBT2bmCtrb" name="Page-1">
    <mxGraphModel dx="3100" dy="1310" grid="1" gridSize="10" guides="1" tooltips="1" connect="1" arrows="1" fold="1" page="1" pageScale="1" pageWidth="827" pageHeight="1169" math="0" shadow="0">
      <root>
        <mxCell id="0" />
        <mxCell id="1" parent="0" />
        <mxCell id="iZ1G9EmSAlIcvluXOjY9-2" value="" style="whiteSpace=wrap;html=1;shape=mxgraph.basic.cloud_rect" vertex="1" parent="1">
          <mxGeometry x="-680" y="100" width="310" height="360" as="geometry" />
        </mxCell>
        <mxCell id="iZ1G9EmSAlIcvluXOjY9-4" value="Strato" style="html=1;strokeColor=none;fillColor=#0079D6;labelPosition=center;verticalLabelPosition=middle;verticalAlign=top;align=center;fontSize=12;outlineConnect=0;spacingTop=-6;fontColor=#FFFFFF;shape=mxgraph.sitemap.cloud;" vertex="1" parent="1">
          <mxGeometry x="-710" y="70" width="120" height="70" as="geometry" />
        </mxCell>
        <mxCell id="iZ1G9EmSAlIcvluXOjY9-5" value="" style="shape=cylinder3;whiteSpace=wrap;html=1;boundedLbl=1;backgroundOutline=1;size=15;" vertex="1" parent="1">
          <mxGeometry x="-588.25" y="140" width="140" height="280" as="geometry" />
        </mxCell>
        <mxCell id="iZ1G9EmSAlIcvluXOjY9-27" value="" style="group" vertex="1" connectable="0" parent="1">
          <mxGeometry x="74" y="650" width="63.5" height="210" as="geometry" />
        </mxCell>
        <mxCell id="iZ1G9EmSAlIcvluXOjY9-9" value="" style="line;strokeWidth=2;direction=south;html=1;" vertex="1" parent="iZ1G9EmSAlIcvluXOjY9-27">
          <mxGeometry x="46" y="40" height="160" as="geometry" />
        </mxCell>
        <mxCell id="iZ1G9EmSAlIcvluXOjY9-13" value="" style="line;strokeWidth=2;direction=south;html=1;" vertex="1" parent="iZ1G9EmSAlIcvluXOjY9-27">
          <mxGeometry y="10" width="10" height="200" as="geometry" />
        </mxCell>
        <mxCell id="iZ1G9EmSAlIcvluXOjY9-14" value="" style="line;strokeWidth=2;html=1;perimeter=backbonePerimeter;points=[];outlineConnect=0;" vertex="1" parent="iZ1G9EmSAlIcvluXOjY9-27">
          <mxGeometry x="6" y="30" width="20" height="10" as="geometry" />
        </mxCell>
        <mxCell id="iZ1G9EmSAlIcvluXOjY9-15" value="" style="line;strokeWidth=2;html=1;perimeter=backbonePerimeter;points=[];outlineConnect=0;" vertex="1" parent="iZ1G9EmSAlIcvluXOjY9-27">
          <mxGeometry x="6" y="84" width="20" height="10" as="geometry" />
        </mxCell>
        <mxCell id="iZ1G9EmSAlIcvluXOjY9-16" value="" style="line;strokeWidth=2;html=1;perimeter=backbonePerimeter;points=[];outlineConnect=0;" vertex="1" parent="iZ1G9EmSAlIcvluXOjY9-27">
          <mxGeometry x="6" y="140" width="20" height="10" as="geometry" />
        </mxCell>
        <mxCell id="iZ1G9EmSAlIcvluXOjY9-17" value="" style="line;strokeWidth=2;html=1;perimeter=backbonePerimeter;points=[];outlineConnect=0;" vertex="1" parent="iZ1G9EmSAlIcvluXOjY9-27">
          <mxGeometry x="6" y="188" width="20" height="10" as="geometry" />
        </mxCell>
        <mxCell id="iZ1G9EmSAlIcvluXOjY9-18" value="" style="ellipse;whiteSpace=wrap;html=1;aspect=fixed;fillColor=#000000;" vertex="1" parent="iZ1G9EmSAlIcvluXOjY9-27">
          <mxGeometry width="10" height="10" as="geometry" />
        </mxCell>
        <mxCell id="iZ1G9EmSAlIcvluXOjY9-22" value="not-crypt" style="pointerEvents=1;shadow=0;dashed=0;html=1;strokeColor=none;labelPosition=center;verticalLabelPosition=bottom;verticalAlign=top;outlineConnect=0;align=center;shape=mxgraph.office.concepts.folder;fillColor=#CCCBCB;" vertex="1" parent="iZ1G9EmSAlIcvluXOjY9-27">
          <mxGeometry x="28.5" y="16" width="35" height="30" as="geometry" />
        </mxCell>
        <mxCell id="iZ1G9EmSAlIcvluXOjY9-23" value="crypt" style="pointerEvents=1;shadow=0;dashed=0;html=1;strokeColor=none;fillColor=#505050;labelPosition=center;verticalLabelPosition=bottom;verticalAlign=top;outlineConnect=0;align=center;shape=mxgraph.office.concepts.folder;" vertex="1" parent="iZ1G9EmSAlIcvluXOjY9-27">
          <mxGeometry x="28.5" y="72" width="35" height="30" as="geometry" />
        </mxCell>
        <mxCell id="iZ1G9EmSAlIcvluXOjY9-24" value="Enpass" style="pointerEvents=1;shadow=0;dashed=0;html=1;strokeColor=none;fillColor=#505050;labelPosition=center;verticalLabelPosition=bottom;verticalAlign=top;outlineConnect=0;align=center;shape=mxgraph.office.concepts.folder;" vertex="1" parent="iZ1G9EmSAlIcvluXOjY9-27">
          <mxGeometry x="28.5" y="127" width="35" height="30" as="geometry" />
        </mxCell>
        <mxCell id="iZ1G9EmSAlIcvluXOjY9-28" value="" style="group" vertex="1" connectable="0" parent="1">
          <mxGeometry x="-550" y="180" width="63.5" height="210" as="geometry" />
        </mxCell>
        <mxCell id="iZ1G9EmSAlIcvluXOjY9-29" value="" style="line;strokeWidth=2;direction=south;html=1;" vertex="1" parent="iZ1G9EmSAlIcvluXOjY9-28">
          <mxGeometry x="46" y="40" height="160" as="geometry" />
        </mxCell>
        <mxCell id="iZ1G9EmSAlIcvluXOjY9-30" value="" style="line;strokeWidth=2;direction=south;html=1;" vertex="1" parent="iZ1G9EmSAlIcvluXOjY9-28">
          <mxGeometry y="10" width="10" height="200" as="geometry" />
        </mxCell>
        <mxCell id="iZ1G9EmSAlIcvluXOjY9-31" value="" style="line;strokeWidth=2;html=1;perimeter=backbonePerimeter;points=[];outlineConnect=0;" vertex="1" parent="iZ1G9EmSAlIcvluXOjY9-28">
          <mxGeometry x="6" y="30" width="20" height="10" as="geometry" />
        </mxCell>
        <mxCell id="iZ1G9EmSAlIcvluXOjY9-32" value="" style="line;strokeWidth=2;html=1;perimeter=backbonePerimeter;points=[];outlineConnect=0;" vertex="1" parent="iZ1G9EmSAlIcvluXOjY9-28">
          <mxGeometry x="6" y="84" width="20" height="10" as="geometry" />
        </mxCell>
        <mxCell id="iZ1G9EmSAlIcvluXOjY9-33" value="" style="line;strokeWidth=2;html=1;perimeter=backbonePerimeter;points=[];outlineConnect=0;" vertex="1" parent="iZ1G9EmSAlIcvluXOjY9-28">
          <mxGeometry x="6" y="140" width="20" height="10" as="geometry" />
        </mxCell>
        <mxCell id="iZ1G9EmSAlIcvluXOjY9-34" value="" style="line;strokeWidth=2;html=1;perimeter=backbonePerimeter;points=[];outlineConnect=0;" vertex="1" parent="iZ1G9EmSAlIcvluXOjY9-28">
          <mxGeometry x="6" y="188" width="20" height="10" as="geometry" />
        </mxCell>
        <mxCell id="iZ1G9EmSAlIcvluXOjY9-35" value="" style="ellipse;whiteSpace=wrap;html=1;aspect=fixed;fillColor=#000000;" vertex="1" parent="iZ1G9EmSAlIcvluXOjY9-28">
          <mxGeometry width="10" height="10" as="geometry" />
        </mxCell>
        <mxCell id="iZ1G9EmSAlIcvluXOjY9-36" value="not-crypt" style="pointerEvents=1;shadow=0;dashed=0;html=1;strokeColor=none;labelPosition=center;verticalLabelPosition=bottom;verticalAlign=top;outlineConnect=0;align=center;shape=mxgraph.office.concepts.folder;fillColor=#CCCBCB;" vertex="1" parent="iZ1G9EmSAlIcvluXOjY9-28">
          <mxGeometry x="28.5" y="16" width="35" height="30" as="geometry" />
        </mxCell>
        <mxCell id="iZ1G9EmSAlIcvluXOjY9-37" value="crypt" style="pointerEvents=1;shadow=0;dashed=0;html=1;strokeColor=none;fillColor=#505050;labelPosition=center;verticalLabelPosition=bottom;verticalAlign=top;outlineConnect=0;align=center;shape=mxgraph.office.concepts.folder;" vertex="1" parent="iZ1G9EmSAlIcvluXOjY9-28">
          <mxGeometry x="28.5" y="72" width="35" height="30" as="geometry" />
        </mxCell>
        <mxCell id="iZ1G9EmSAlIcvluXOjY9-38" value="Enpass" style="pointerEvents=1;shadow=0;dashed=0;html=1;strokeColor=none;fillColor=#505050;labelPosition=center;verticalLabelPosition=bottom;verticalAlign=top;outlineConnect=0;align=center;shape=mxgraph.office.concepts.folder;" vertex="1" parent="iZ1G9EmSAlIcvluXOjY9-28">
          <mxGeometry x="28.5" y="127" width="35" height="30" as="geometry" />
        </mxCell>
        <mxCell id="iZ1G9EmSAlIcvluXOjY9-39" value="&lt;div&gt;Hidrive&lt;/div&gt;" style="text;html=1;strokeColor=none;fillColor=none;align=center;verticalAlign=middle;whiteSpace=wrap;rounded=0;" vertex="1" parent="1">
          <mxGeometry x="-538.25" y="150" width="40" height="20" as="geometry" />
        </mxCell>
        <mxCell id="iZ1G9EmSAlIcvluXOjY9-42" style="edgeStyle=orthogonalEdgeStyle;rounded=0;orthogonalLoop=1;jettySize=auto;html=1;exitX=0.5;exitY=0;exitDx=0;exitDy=0;" edge="1" parent="1" source="iZ1G9EmSAlIcvluXOjY9-41" target="iZ1G9EmSAlIcvluXOjY9-5">
          <mxGeometry relative="1" as="geometry" />
        </mxCell>
        <mxCell id="iZ1G9EmSAlIcvluXOjY9-41" value="Adminstrator" style="shape=image;html=1;verticalAlign=top;verticalLabelPosition=bottom;labelBackgroundColor=#ffffff;imageAspect=0;aspect=fixed;image=https://cdn0.iconfinder.com/data/icons/users-android-l-lollipop-icon-pack/24/user-128.png;strokeWidth=2;fillColor=#000000;imageBackground=#00CC00;" vertex="1" parent="1">
          <mxGeometry x="-650" y="310" width="50" height="50" as="geometry" />
        </mxCell>
        <mxCell id="iZ1G9EmSAlIcvluXOjY9-50" style="edgeStyle=orthogonalEdgeStyle;rounded=0;orthogonalLoop=1;jettySize=auto;html=1;entryX=-0.003;entryY=0.204;entryDx=0;entryDy=0;entryPerimeter=0;" edge="1" parent="1" source="iZ1G9EmSAlIcvluXOjY9-43" target="iZ1G9EmSAlIcvluXOjY9-5">
          <mxGeometry relative="1" as="geometry" />
        </mxCell>
        <mxCell id="iZ1G9EmSAlIcvluXOjY9-43" value="Hacker" style="shape=image;html=1;verticalAlign=top;verticalLabelPosition=bottom;labelBackgroundColor=#ffffff;imageAspect=0;aspect=fixed;image=https://cdn0.iconfinder.com/data/icons/users-android-l-lollipop-icon-pack/24/user-128.png;strokeWidth=2;fillColor=#000000;imageBackground=#FF0000;" vertex="1" parent="1">
          <mxGeometry x="-750" y="172" width="50" height="50" as="geometry" />
        </mxCell>
      </root>
    </mxGraphModel>
  </diagram>
</mxfile>
